<?xml version="1.0" encoding="UTF-8" standalone="no"?>
<svg
   xmlns:dc="http://purl.org/dc/elements/1.1/"
   xmlns:cc="http://creativecommons.org/ns#"
   xmlns:rdf="http://www.w3.org/1999/02/22-rdf-syntax-ns#"
   xmlns:svg="http://www.w3.org/2000/svg"
   xmlns="http://www.w3.org/2000/svg"
   xmlns:sodipodi="http://sodipodi.sourceforge.net/DTD/sodipodi-0.dtd"
   xmlns:inkscape="http://www.inkscape.org/namespaces/inkscape"
   width="57.56329mm"
   height="12.74957mm"
   viewBox="0 0 57.56329 12.74957"
   version="1.1"
   id="svg8"
   inkscape:version="1.0.2 (e86c870879, 2021-01-15)"
   sodipodi:docname="betefex.svg">
  <defs
     id="defs2" />
  <sodipodi:namedview
     id="base"
     pagecolor="#ffffff"
     bordercolor="#666666"
     borderopacity="1.0"
     inkscape:pageopacity="0.0"
     inkscape:pageshadow="2"
     inkscape:zoom="2.8"
     inkscape:cx="42.611145"
     inkscape:cy="146.61687"
     inkscape:document-units="mm"
     inkscape:current-layer="layer1"
     inkscape:document-rotation="0"
     showgrid="false"
     inkscape:window-width="1533"
     inkscape:window-height="1376"
     inkscape:window-x="1907"
     inkscape:window-y="27"
     inkscape:window-maximized="0"
     inkscape:pagecheckerboard="true"
     fit-margin-top="0"
     fit-margin-left="0"
     fit-margin-right="0"
     fit-margin-bottom="0" />
  <metadata
     id="metadata5">
    <rdf:RDF>
      <cc:Work
         rdf:about="">
        <dc:format>image/svg+xml</dc:format>
        <dc:type
           rdf:resource="http://purl.org/dc/dcmitype/StillImage" />
        <dc:title></dc:title>
      </cc:Work>
    </rdf:RDF>
  </metadata>
  <g
     inkscape:label="Layer 1"
     inkscape:groupmode="layer"
     id="layer1"
     transform="translate(-24.725221,-58.996141)">
    <g
       aria-label="BeTefex"
       id="text12"
       style="font-style:normal;font-weight:normal;font-size:16.9333px;line-height:1.25;font-family:sans-serif;fill:#000000;fill-opacity:1;stroke:none;stroke-width:0.264583">
      <path
         d="m 24.791361,60.095799 -0.06614,-0.05788 v -0.413411 l 0.06614,-0.05788 q 1.413865,0.06614 2.182809,0.06614 0.289387,0 2.290295,-0.06614 0.64492,-0.01654 0.934308,-0.01654 1.116208,0 1.769397,0.223242 0.653189,0.223242 1.050063,0.793748 0.396874,0.562239 0.396874,1.281573 0,0.917772 -0.661457,1.703252 -0.661457,0.785481 -2.149735,1.124477 0.892967,0.08268 1.471742,0.239778 0.578775,0.157096 1.000454,0.487825 0.421679,0.32246 0.661457,0.843358 0.248046,0.520897 0.248046,1.207159 0,0.537434 -0.165364,1.091404 -0.165364,0.55397 -0.611848,1.099672 -0.438215,0.545702 -1.066599,0.934308 -0.628384,0.388606 -1.289842,0.562239 -0.653188,0.173632 -1.628837,0.173632 -0.198438,0 -1.190623,-0.04134 -1.099672,-0.0248 -1.190623,-0.0248 -0.562238,0 -1.380791,0.06615 l -0.06615,-0.06615 v -0.272851 l 0.06615,-0.08268 q 0.479556,-0.214973 0.55397,-0.297655 0.07441,-0.08268 0.115755,-1.463474 0.04961,-1.380792 0.04961,-2.108394 v -3.034434 l -0.0083,-1.876885 q 0,-0.611847 -0.01654,-0.992185 -0.01654,-0.388606 -0.04961,-0.553971 -0.0248,-0.165364 -0.09095,-0.231509 -0.06615,-0.06615 -0.190169,-0.107487 -0.115755,-0.04961 -0.405142,-0.08268 z m 2.968289,4.340812 q 0.41341,0.03307 0.934308,0.03307 1.71152,0 2.381245,-0.611848 0.669725,-0.611848 0.669725,-1.678447 0,-0.620116 -0.256314,-1.050063 -0.256315,-0.438215 -0.810285,-0.669725 -0.545702,-0.23151 -1.488278,-0.23151 -0.768944,0 -1.355987,0.124023 -0.07441,0.744139 -0.07441,2.596219 z m 0.01654,6.027527 q 0.636653,0.148828 1.306378,0.148828 1.182354,0 1.85208,-0.380338 0.669725,-0.380337 0.983917,-1.050063 0.32246,-0.677993 0.32246,-1.471742 0,-1.190622 -0.677993,-1.901689 -0.669725,-0.719334 -2.910411,-0.719334 -0.37207,0 -0.892967,0.03307 v 2.81946 z"
         style="fill:#eacf4c;fill-opacity:1"
         id="path867" />
      <path
         d="m 42.14634,70.034191 -0.264582,0.595312 q -0.859895,0.55397 -1.537888,0.719334 -0.669725,0.165364 -1.198891,0.165364 -0.992185,0 -1.885152,-0.388606 -0.884699,-0.388606 -1.446938,-1.314646 -0.55397,-0.926039 -0.55397,-2.232417 0,-0.868162 0.214974,-1.562692 0.214973,-0.702798 0.446483,-1.041795 0.239778,-0.338997 0.802017,-0.752407 0.562238,-0.413411 1.190622,-0.661457 0.628385,-0.248047 1.355987,-0.248047 0.992186,0 1.744593,0.471288 0.760676,0.46302 1.0666,1.190623 0.305924,0.727603 0.305924,1.546156 0,0.256314 -0.02481,0.496093 l -0.09095,0.09095 q -0.562239,0.124023 -1.513083,0.165364 -0.950845,0.04134 -1.256769,0.04134 h -2.654096 q 0.01654,1.71152 0.859894,2.521805 0.843358,0.810285 2.067053,0.810285 0.578775,0 1.107941,-0.198437 0.537434,-0.198437 1.132745,-0.55397 z m -5.299924,-3.381699 q 0.148828,0.02481 1.141013,0.05788 1.000454,0.03307 1.48001,0.03307 1.149282,0 1.397328,-0.04134 0.0083,-0.198437 0.0083,-0.305923 0,-1.281573 -0.520898,-1.901689 -0.520897,-0.628385 -1.422132,-0.628385 -0.983918,0 -1.537888,0.702799 -0.545702,0.702798 -0.545702,2.083589 z m 2.306831,-3.803378 z m -0.09922,8.896597 z"
         style="fill:#eacf4c;fill-opacity:1"
         id="path869" />
      <path
         d="m 52.92809,59.566634 0.07441,0.07441 q -0.07441,0.744139 -0.07441,2.596218 l -0.06615,0.06615 h -0.388606 l -0.06615,-0.07441 -0.09095,-0.760675 q -0.06615,-0.611848 -0.107487,-0.744139 -0.03307,-0.14056 -0.115755,-0.198438 -0.08268,-0.06614 -0.537434,-0.107486 -0.454751,-0.04134 -1.01699,-0.04134 h -1.562692 q -0.06615,1.868616 -0.06615,2.158003 v 4.820368 l 0.01654,1.612302 q 0.0083,0.934308 0.04134,1.215427 0.04134,0.272851 0.115755,0.363801 0.08268,0.08268 0.305923,0.148828 0.223242,0.05788 1.107941,0.09095 l 0.05788,0.04961 v 0.413411 l -0.05788,0.06615 q -2.116662,-0.06615 -2.364709,-0.06615 -0.264583,0 -2.356441,0.06615 l -0.06614,-0.06615 v -0.413411 l 0.06614,-0.04961 q 0.777212,-0.03307 1.025259,-0.08268 0.256314,-0.04961 0.338997,-0.124023 0.09095,-0.08268 0.148827,-0.338996 0.05788,-0.256315 0.05788,-1.141014 l 0.01654,-1.744593 v -4.820368 q 0,-0.132291 -0.06614,-2.158003 h -1.231964 q -0.760676,0 -1.314646,0.03307 -0.55397,0.03307 -0.644921,0.173633 -0.08268,0.132291 -0.157096,0.884699 l -0.08268,0.760675 -0.07441,0.07441 h -0.380337 l -0.06615,-0.06615 q -0.01654,-1.992639 -0.07441,-2.596218 l 0.07441,-0.07441 q 1.438669,0.06614 4.787295,0.06614 3.414772,0 4.795564,-0.06614 z"
         style="fill:#ffffff;fill-opacity:1"
         id="path871" />
      <path
         d="m 59.435172,70.034191 -0.264583,0.595312 q -0.859894,0.55397 -1.537887,0.719334 -0.669726,0.165364 -1.198891,0.165364 -0.992186,0 -1.885153,-0.388606 -0.884698,-0.388606 -1.446937,-1.314646 -0.55397,-0.926039 -0.55397,-2.232417 0,-0.868162 0.214973,-1.562692 0.214974,-0.702798 0.446484,-1.041795 0.239778,-0.338997 0.802016,-0.752407 0.562239,-0.413411 1.190623,-0.661457 0.628384,-0.248047 1.355987,-0.248047 0.992186,0 1.744593,0.471288 0.760676,0.46302 1.066599,1.190623 0.305924,0.727603 0.305924,1.546156 0,0.256314 -0.0248,0.496093 l -0.09095,0.09095 q -0.562238,0.124023 -1.513083,0.165364 -0.950844,0.04134 -1.256768,0.04134 h -2.654096 q 0.01654,1.71152 0.859894,2.521805 0.843358,0.810285 2.067053,0.810285 0.578775,0 1.107941,-0.198437 0.537433,-0.198437 1.132745,-0.55397 z m -5.299924,-3.381699 q 0.148827,0.02481 1.141013,0.05788 1.000454,0.03307 1.48001,0.03307 1.149282,0 1.397328,-0.04134 0.0083,-0.198437 0.0083,-0.305923 0,-1.281573 -0.520897,-1.901689 -0.520897,-0.628385 -1.422133,-0.628385 -0.983917,0 -1.537887,0.702799 -0.545702,0.702798 -0.545702,2.083589 z m 2.306831,-3.803378 z m -0.09922,8.896597 z"
         style="fill:#ffffff;fill-opacity:1"
         id="path873" />
      <path
         d="m 64.999681,70.82794 0.06615,0.06615 v 0.347265 l -0.06615,0.07441 q -0.256315,0 -0.967381,-0.03307 -0.644921,-0.03307 -1.331182,-0.03307 -0.892967,0 -1.99264,0.06615 l -0.06614,-0.07441 V 70.8941 l 0.06614,-0.06615 q 0.802017,-0.04961 0.909504,-0.07441 0.107487,-0.02481 0.1819,-0.09922 0.07441,-0.08268 0.09922,-0.239778 0.03307,-0.165364 0.06615,-1.066599 0.04134,-0.909504 0.04134,-1.372524 v -3.19153 l -1.0666,0.05788 -0.07441,-0.06615 v -0.206705 l 0.05788,-0.08268 1.083136,-0.55397 v -0.496093 q 0,-0.826821 0.07441,-1.2485 0.07441,-0.429947 0.272851,-0.78548 0.206705,-0.363801 0.711066,-0.909503 0.504361,-0.553971 0.884699,-0.901236 0.380338,-0.355533 0.661457,-0.471288 0.281119,-0.124023 0.661457,-0.124023 0.314192,0 0.677993,0.124023 l -0.0083,1.355987 -0.190169,0.07441 q -0.46302,-0.413411 -1.074867,-0.413411 -0.429947,0 -0.74414,0.181901 -0.314192,0.173633 -0.429947,0.578775 -0.115755,0.396874 -0.115755,1.322914 v 1.71152 h 0.884699 q 0.686262,0 1.29811,-0.04961 l 0.07441,0.09095 -0.148827,0.727603 -0.07441,0.08268 q -0.248047,-0.0083 -0.322461,-0.0083 l -1.074867,-0.0083 h -0.636653 v 3.332089 q 0,0.264583 0.03307,1.215428 0.04134,0.942576 0.07441,1.10794 0.03307,0.165364 0.107487,0.239778 0.08268,0.07441 0.256314,0.107487 0.181901,0.03307 1.141014,0.05788 z"
         style="fill:#ffffff;fill-opacity:1"
         id="path875" />
      <path
         d="m 73.18521,70.034191 -0.264583,0.595312 q -0.859894,0.55397 -1.537887,0.719334 -0.669725,0.165364 -1.198891,0.165364 -0.992186,0 -1.885153,-0.388606 -0.884698,-0.388606 -1.446937,-1.314646 -0.55397,-0.926039 -0.55397,-2.232417 0,-0.868162 0.214973,-1.562692 0.214974,-0.702798 0.446484,-1.041795 0.239778,-0.338997 0.802017,-0.752407 0.562238,-0.413411 1.190622,-0.661457 0.628384,-0.248047 1.355987,-0.248047 0.992186,0 1.744593,0.471288 0.760676,0.46302 1.0666,1.190623 0.305923,0.727603 0.305923,1.546156 0,0.256314 -0.0248,0.496093 l -0.09095,0.09095 q -0.562238,0.124023 -1.513082,0.165364 -0.950845,0.04134 -1.256769,0.04134 h -2.654096 q 0.01654,1.71152 0.859894,2.521805 0.843358,0.810285 2.067053,0.810285 0.578775,0 1.107941,-0.198437 0.537434,-0.198437 1.132745,-0.55397 z m -5.299924,-3.381699 q 0.148828,0.02481 1.141013,0.05788 1.000454,0.03307 1.48001,0.03307 1.149282,0 1.397328,-0.04134 0.0083,-0.198437 0.0083,-0.305923 0,-1.281573 -0.520897,-1.901689 -0.520897,-0.628385 -1.422133,-0.628385 -0.983917,0 -1.537887,0.702799 -0.545702,0.702798 -0.545702,2.083589 z m 2.306831,-3.803378 z m -0.09922,8.896597 z"
         style="fill:#ffffff;fill-opacity:1"
         id="path877" />
      <path
         d="m 74.35103,71.307496 -0.06615,-0.07441 v -0.330728 l 0.07441,-0.06615 q 0.305924,-0.0083 0.496093,-0.09095 0.198437,-0.09095 0.471288,-0.363802 0.281119,-0.281119 0.983917,-1.141013 l 1.331182,-1.645375 -0.702798,-1.050063 q -0.157096,-0.23151 -0.653188,-0.909503 -0.487825,-0.677993 -0.818553,-1.01699 -0.330729,-0.347265 -0.496093,-0.429947 -0.157096,-0.08268 -0.322461,-0.08268 -0.07441,0 -0.198437,0.0083 l -0.08268,-0.05788 -0.06615,-0.330728 0.06615,-0.08268 q 0.843358,-0.09922 1.860348,-0.314192 0.570507,0.471288 1.686716,2.207612 l 0.611847,0.967381 0.520898,-0.661457 q 0.603579,-0.78548 1.694983,-2.35644 0.388606,0.05788 0.620116,0.05788 0.214974,0 0.578775,-0.05788 l 0.06615,0.06614 v 0.330729 l -0.06615,0.06615 q -0.272851,0.0248 -0.396874,0.08268 -0.124023,0.05788 -0.454752,0.380337 -0.330728,0.322461 -0.884699,0.992186 l -0.496092,0.595311 q -0.148828,0.173633 -0.289388,0.355533 l -0.512629,0.661458 0.305924,0.471288 q 0.206705,0.297655 0.992185,1.397328 0.793749,1.091404 1.107941,1.463473 0.32246,0.363802 0.454752,0.429947 0.140559,0.05788 0.454751,0.05788 l 0.06615,0.06615 v 0.338996 l -0.06615,0.06615 q -0.611847,-0.05788 -0.942576,-0.05788 -0.09922,0 -1.058331,0.05788 Q 79.543461,70.455911 78.8572,69.39758 l -0.843358,-1.273305 q -0.851626,0.967381 -2.282027,3.183262 -0.562238,-0.05788 -0.669725,-0.05788 -0.165364,0 -0.711066,0.05788 z"
         style="fill:#ffffff;fill-opacity:1"
         id="path879" />
    </g>
  </g>
</svg>
